<svg version="1.0" xmlns="http://www.w3.org/2000/svg" width="1706.667" height="1362.667" viewBox="0 0 1280 1022"><path d="M1003.5 1c-27.1 3.1-53.9 12-72.5 24.2-9 5.9-20.2 17.5-28.3 29.3-16.5 24-38.2 57.4-48.4 74.5-26.8 44.7-37.7 55-85.1 81-24 13.1-31.2 17.5-40.7 24.5-20.1 14.9-53.8 45.6-74.2 67.7-28.9 31.3-39.2 45.5-65.8 91.3-27.2 46.7-37 60.1-61.9 85-17.9 17.8-34.6 32.1-70.1 60-45.4 35.7-62.8 50.5-80.2 68.2-12.4 12.6-20.5 22.3-42.3 50.8-35 45.7-43.1 54.1-96.5 101-9.3 8.2-36.3 32.5-60 53.9-23.6 21.5-47.5 43.1-53 48.1s-17.9 15.8-27.5 24c-10.5 8.9-33.5 31-57.4 54.9l-40 39.9 8 4c21.6 11 43.4 18.2 68.9 22.9 9.9 1.8 44.5 1.5 62.5-.6 8-.9 22.6-2.3 32.5-3.2l18-1.6 4-3.7c31.9-29 50.9-46.1 70-63.1 12.7-11.3 31.3-28.4 41.5-38 31-29.4 34.1-32.3 45.4-42.4 12.8-11.4 28.4-24 41.1-33.1 9.2-6.6 41.1-26 48.6-29.7 21.3-10.2 104-17.8 136.4-12.4 22.6 3.7 35.4 9.9 53.5 25.8 6.3 5.5 13.8 11.5 16.5 13.3 5.4 3.4 15.4 7.5 18.5 7.5 1.8 0 1.9.7 1.9 8.9 0 5.3.5 9.9 1.2 11.3.7 1.3 12.1 13.5 25.3 27.3 29 30.1 34.8 35.9 49.5 49.4 12.4 11.4 17 17.5 20.1 26.5 2.4 7.1 2.6 16.5.5 20.7-3 5.7-15.3 10.9-30 12.4-3.3.4-8.1 1.3-10.7 2.1-4.5 1.5-5.1 1.4-13.5-1.2-11-3.4-20-3.8-25.8-.9-4.6 2.2-22.5 19.1-22.5 21.1 0 .8.2 1.4.4 1.4s5-2.9 10.6-6.4c12.4-7.9 16.4-8.9 28.9-7.4l9.1 1.1v4.1c0 10.3 7.2 12.3 28.5 8 3.9-.8 14-2.8 22.5-4.4 8.5-1.7 17.8-3.6 20.5-4.4 8.5-2.3 25.1.8 49.7 9.2l11.1 3.8 1.3 5.3c2.6 9.8 4.6 11.3 5.8 4.4 1-6.3 1.7-6.8 7.2-5.3 2.7.6 9.7 1.4 15.5 1.7 11.9.6 21.7-1 30.6-5.1l5.2-2.5 5.1 7c4.7 6.2 7 8.3 7 6.1 0-.4-1.2-4.8-2.6-9.6-1.4-4.9-2.3-9-2-9.3.2-.3 4.3-1.3 8.9-2.4l8.5-1.9 9.3 4.4c31 14.4 50.5 15.1 99.1 3.2 8-2 14.9-3.6 15.4-3.6s6 2.9 12.3 6.5c6.3 3.6 11.7 6.3 11.9 6 .6-.6-5.1-7.7-9.6-11.7-8.8-7.9-19.3-11.8-32.3-11.8-10.9-.1-6.3-2 5.3-2.3 9.9-.2 13.1.6 20.1 5.1 2 1.4 4 2.2 4.4 1.9 1.1-1.2-11.3-12.6-15.9-14.7-5.4-2.5-10.3-2.5-25.3-.1-23.7 3.8-30.2 4.4-44 4.5-16.7.1-24.1-1.3-35.1-6.5-7.7-3.6-9.5-5.2-36.1-31.6-28.4-28.2-45.6-46.8-63.2-68.8l-9.8-12.2 1.8-6.9c3.4-13 2-34.6-3.5-52.6l-1.4-4.7 4.2-2.7c20.9-13.8 42.5-35.2 58.8-58.4 11.8-16.7 24.1-41.5 30.8-61.9 3.6-11.1 10.2-25.9 19.6-44 16.8-32.6 26.3-46.3 63.9-92.6 31.8-39.1 38.5-48.4 38.5-53.6 0-3.9 3.5-16.5 11-39.4 9-27.6 13.6-43.3 16.8-57.4 2.5-11.1 2.6-13.1 2.7-44.1.1-18.8.7-35.7 1.3-40 .7-4.1 1.9-12.5 2.8-18.5 3.4-23 9.8-55.5 16.4-82.5 1.7-6.9 4.4-18.5 6-25.8 8.6-38.1 16.9-47.7 52-60 22.8-8 50.6-15.4 95.3-25.3 13-2.9 23.7-5.6 23.7-6 0-.9-36.1-19.2-55.2-28-39.1-17.9-69.9-27.4-105.7-32.3-10.2-1.5-12.1-2.1-17.6-5.5-13.1-8.3-28.3-14.9-43.4-18.8-8.1-2.1-12.4-2.5-28.1-2.8-10.2-.2-22.1 0-26.5.5zM768.3 828.4c.8 8.1 5 17.3 12.8 27.4 10.3 13.6 38 40.8 60.4 59.2 11.6 9.6 26.4 22.8 33 29.5 12.9 13 33 35.3 32.4 35.9-.4.3-26 7.1-31.6 8.3-2.3.5-23.5-5.1-37.2-9.9-10.4-3.6-22.7-10-30.7-15.9-10.3-7.5-26.1-23.8-38.7-39.8-6.7-8.4-18.4-22.6-26-31.5-23.4-27.3-30.3-39.8-29.5-53.6.2-4.7 1-7.4 2.5-9.6l2.2-3.1 14.8-.8c8.1-.4 18.2-1.1 22.3-1.5 14-1.3 12.6-1.9 13.3 5.4z" fill="#2d2d8c"/></svg>