<svg fill="#2d2d8c" version="1.1" id="Capa_1" xmlns="http://www.w3.org/2000/svg" xmlns:xlink="http://www.w3.org/1999/xlink" 
	 width="800px" height="800px" viewBox="0 0 230.504 230.504"
	 xml:space="preserve">
<g>
	<path d="M230.342,34.09c1.876-1.651-12.827-7.155-28.609-12.184c-6.896-2.198-10.968-6.99-22.376-6.187
		c-14.789,0-26.123,20.712-32.216,31.513c-7.655,13.57-24.085,18.145-34.864,28.717c-32.453,31.824-61.877,68.51-94.93,101.02
		c-34.531,33.965-11.609,28.819,17.539,9.948c0.656-0.382,1.472-0.796,2.404-1.231c-18.746,20.518-1.249,15.809,20.508,1.723
		c6.132-3.569,19.83-11.032,41.59-11.082c14.903,7.767,27.691,27.686,27.935,28.251l-1.409,0.434c-2,0.615-8.858,2.128-12.52,2.925
		l-0.04,0.01c-0.906,0.195-1.615,0.351-1.995,0.433l-1.683,0.369c-0.351,0.076-0.601,0.385-0.6,0.745
		c0.001,0.357,0.253,0.667,0.604,0.74c0.677,0.144,1.454,0.209,2.443,0.209c0.441,0,0.882-0.013,1.308-0.023
		c0.384-0.011,0.757-0.021,1.11-0.021c0.379,0,1.534,0,1.823,0.332c1.396,1.612,2.962,2.361,4.933,2.361
		c0.935,0,1.86-0.164,2.756-0.322c0.864-0.152,1.678-0.298,2.493-0.306c1.09-0.012,2.209-0.048,3.291-0.082
		c1.292-0.043,2.628-0.086,3.929-0.086c3.081,0,5.354,0.25,7.366,0.815c3.911,1.098,6.461,1.764,8.918,1.764
		c2.704,0,5.248-0.771,9.72-2.951c0.49-0.24,1.465-0.279,1.832-0.078c3.392,1.854,6.992,2.756,11.01,2.756
		c3.072,0,6.398-0.521,10.467-1.64c0.394-0.106,0.835-0.159,1.353-0.159c0.712,0,1.463,0.098,2.257,0.197
		c0.643,0.083,1.306,0.168,1.969,0.204c0.015,0,0.026,0,0.04,0h0.01c0.421,0,0.761-0.341,0.761-0.761
		c0-0.179-0.061-0.342-0.163-0.472l-0.234-0.413c-1.457-2.59-3.108-5.522-6.457-5.522c-0.643,0-1.332,0.112-2.049,0.335
		c-2.604,0.812-5.118,1.223-7.474,1.223c-6.813,0-12.728-3.199-18.354-10.279c-11.392-14.342-6.3-27.127,0.182-42.293
		c10.437-24.431,25.335-42.77,34.216-72.751c3.303-11.151,6.112-32.978,18.552-35.675c2.366-0.513,21.104-1.277,21.502-3.391
		c0.346-1.846-23.085-7.105-25.909-7.885C207.453,35.394,228.829,35.422,230.342,34.09z M154.644,207.188
		c-1.839,0.629-3.667,0.947-5.446,0.947c-4.469,0-8.781-1.943-13.187-5.939c-4.611-4.187-9.761-20.194-9.761-20.194
		s13.323,10.651,16.703,13.504C147.119,199.022,151.417,202.651,154.644,207.188z M181.085,34.584c-2.301,0-4.167-1.865-4.167-4.167
		s1.866-4.166,4.167-4.166s4.167,1.866,4.167,4.167S183.387,34.584,181.085,34.584z"/>
</g>
</svg>