<svg width="512" height="512" xmlns="http://www.w3.org/2000/svg"><path d="M6 56C6 28.831 28.831 6 56 6h400c27.169 0 50 22.831 50 50v400c0 27.169-22.831 50-50 50H56c-27.169 0-50-22.831-50-50V56z" filter="url(#a)" opacity="undefined" stroke-width="5" stroke="#2d2d8c" fill="url(#b)"/><path stroke-width="3" stroke="#333" fill="#2d2d8c" d="M392.04 66.643c-10.062 1.151-20.013 4.456-26.92 8.986-3.34 2.19-7.5 6.497-10.507 10.879-6.126 8.91-14.183 21.312-17.97 27.661-9.951 16.597-13.998 20.421-31.597 30.075-8.912 4.864-11.585 6.498-15.112 9.097-7.463 5.532-19.976 16.93-27.55 25.136-10.73 11.622-14.555 16.894-24.431 33.9-10.1 17.339-13.738 22.314-22.984 31.56-6.646 6.608-12.846 11.918-26.027 22.277-16.857 13.255-23.318 18.75-29.778 25.322-4.604 4.679-7.612 8.28-15.706 18.862-12.995 16.968-16.003 20.087-35.83 37.5-3.453 3.045-13.478 12.068-22.277 20.014-8.763 7.982-17.637 16.002-19.679 17.859-2.042 1.856-6.646 5.866-10.21 8.91-3.9 3.305-12.439 11.511-21.313 20.385l-14.852 14.815 2.97 1.485c8.02 4.084 16.115 6.757 25.583 8.502 3.676.669 16.522.557 23.206-.222 2.97-.334 8.391-.854 12.067-1.188l6.683-.595 1.485-1.373c11.845-10.768 18.9-17.117 25.99-23.429 4.716-4.196 11.622-10.545 15.41-14.11 11.51-10.915 12.66-11.992 16.856-15.742 4.753-4.233 10.545-8.911 15.26-12.29 3.417-2.45 15.26-9.654 18.046-11.027 7.908-3.788 38.614-6.61 50.644-4.604 8.391 1.373 13.144 3.675 19.864 9.579 2.34 2.042 5.124 4.27 6.127 4.938 2.005 1.263 5.718 2.785 6.869 2.785.668 0 .705.26.705 3.304 0 1.968.186 3.676.446 4.196.26.483 4.492 5.013 9.393 10.136 10.768 11.176 12.921 13.33 18.38 18.342 4.604 4.233 6.311 6.498 7.463 9.84.89 2.636.965 6.126.185 7.685-1.114 2.117-5.68 4.048-11.139 4.605-1.225.148-3.007.482-3.973.78-1.67.556-1.893.519-5.012-.446-4.084-1.263-7.426-1.411-9.58-.334-1.707.816-8.354 7.091-8.354 7.834 0 .297.075.52.149.52s1.856-1.077 3.936-2.377c4.604-2.933 6.089-3.304 10.73-2.747l3.379.408v1.523c0 3.824 2.673 4.566 10.582 2.97 1.448-.297 5.198-1.04 8.354-1.634 3.156-.631 6.609-1.336 7.611-1.634 3.156-.854 9.32.298 18.454 3.416l4.121 1.411.483 1.968c.965 3.639 1.708 4.196 2.153 1.634.372-2.34.632-2.525 2.674-1.968 1.002.223 3.601.52 5.755.631 4.418.223 8.057-.371 11.361-1.893l1.931-.929 1.894 2.6c1.745 2.301 2.599 3.081 2.599 2.264 0-.148-.446-1.782-.966-3.564-.52-1.82-.854-3.342-.742-3.453.074-.112 1.596-.483 3.304-.891l3.156-.706 3.453 1.634c11.51 5.347 18.75 5.607 36.796 1.188 2.97-.742 5.532-1.337 5.718-1.337.185 0 2.227 1.077 4.566 2.414 2.34 1.337 4.345 2.339 4.419 2.228.223-.223-1.894-2.86-3.565-4.345-3.267-2.933-7.166-4.38-11.992-4.38-4.047-.038-2.34-.743 1.967-.855 3.676-.074 4.864.223 7.463 1.894.743.52 1.486.817 1.634.705.409-.445-4.195-4.678-5.903-5.458-2.005-.928-3.825-.928-9.394-.037-8.8 1.411-11.213 1.634-16.337 1.671-6.2.037-8.948-.483-13.033-2.413-2.858-1.337-3.527-1.931-13.403-11.733-10.545-10.47-16.931-17.377-23.466-25.545l-3.639-4.53.669-2.562c1.262-4.827.742-12.847-1.3-19.53l-.52-1.745 1.56-1.003c7.76-5.124 15.78-13.07 21.832-21.683 4.381-6.201 8.948-15.41 11.436-22.983 1.336-4.122 3.787-9.617 7.277-16.337 6.238-12.105 9.765-17.191 23.726-34.382 11.807-14.518 14.295-17.97 14.295-19.902 0-1.448 1.3-6.126 4.084-14.629 3.341-10.247 5.05-16.077 6.238-21.312.928-4.121.965-4.864 1.002-16.374.037-6.98.26-13.255.483-14.852.26-1.522.705-4.641 1.04-6.869 1.262-8.54 3.638-20.607 6.089-30.632a461.847 461.847 0 0 0 2.227-9.579c3.193-14.146 6.275-17.71 19.308-22.278 8.465-2.97 18.787-5.718 35.384-9.393 4.827-1.077 8.8-2.08 8.8-2.228 0-.334-13.404-7.129-20.496-10.396-14.517-6.647-25.953-10.174-39.246-11.993-3.787-.557-4.492-.78-6.534-2.042-4.864-3.082-10.508-5.533-16.115-6.98-3.007-.78-4.604-.929-10.433-1.04-3.787-.075-8.206 0-9.84.185zm-87.329 307.21c.297 3.007 1.857 6.423 4.753 10.173 3.824 5.05 14.11 15.149 22.426 21.98 4.307 3.565 9.802 8.466 12.253 10.954 4.79 4.826 12.252 13.106 12.03 13.33-.149.11-9.654 2.635-11.733 3.08-.854.186-8.726-1.893-13.812-3.675-3.862-1.337-8.429-3.713-11.4-5.904-3.823-2.784-9.69-8.836-14.368-14.777a549.267 549.267 0 0 0-9.654-11.696c-8.688-10.136-11.25-14.777-10.953-19.901.074-1.745.371-2.748.928-3.565l.817-1.15 5.495-.298c3.008-.148 6.758-.408 8.28-.557 5.198-.482 4.678-.705 4.938 2.005z"/><defs><linearGradient spreadMethod="pad" y2="0" x2="1" y1="0" x1="0" id="b"><stop offset="0" stop-opacity=".977" stop-color="#c0eef9"/><stop offset="1" stop-opacity=".984" stop-color="#fdf"/></linearGradient><filter height="200%" width="200%" y="-50%" x="-50%" id="a"><feGaussianBlur in="SourceGraphic"/></filter></defs></svg>